<?xml version="1.0" standalone="no"?>
<!DOCTYPE svg PUBLIC "-//W3C//DTD SVG 20010904//EN"
 "http://www.w3.org/TR/2001/REC-SVG-20010904/DTD/svg10.dtd">
<svg version="1.0" xmlns="http://www.w3.org/2000/svg"
 width="120" height="120" viewBox="0 0 500.000000 500.000000"
 preserveAspectRatio="xMidYMid meet">

<g transform="translate(0.000000,500.000000) scale(0.100000,-0.100000)"
fill="#FFFFFF" stroke="none">
<path d="M2363 3723 c-18 -2 -33 -10 -33 -17 0 -9 9 -12 25 -8 30 5 31 -3 5
-64 -11 -26 -19 -48 -18 -49 2 -1 24 0 51 3 32 3 47 9 47 18 0 11 -7 13 -26 8
-24 -6 -26 -5 -22 17 3 13 13 41 22 62 18 41 22 39 -51 30z"/>
<path d="M2526 3708 c-3 -13 -6 -44 -6 -70 0 -36 4 -48 15 -48 12 0 15 14 15
70 0 69 -12 92 -24 48z"/>
<path d="M2657 3708 c-8 -30 0 -36 18 -12 18 24 19 34 1 34 -7 0 -16 -10 -19
-22z"/>
<path d="M2208 3694 c-4 -3 -2 -19 3 -37 5 -17 7 -32 6 -34 -2 -1 -16 11 -32
27 -32 33 -55 39 -55 14 0 -35 32 -125 43 -121 7 3 11 9 10 13 -1 5 -5 23 -9
39 l-7 30 37 -34 c50 -49 63 -33 41 48 -17 58 -24 69 -37 55z"/>
<path d="M2786 3674 c-9 -8 -16 -19 -16 -24 0 -11 26 -37 51 -51 11 -5 17 -14
14 -20 -11 -17 -42 -9 -58 14 -8 12 -18 19 -22 15 -4 -4 0 -19 9 -33 14 -22
24 -26 54 -23 52 4 57 39 11 77 -38 32 -25 51 14 21 28 -22 37 -25 37 -10 0
17 -39 50 -59 50 -11 0 -27 -7 -35 -16z"/>
<path d="M2957 3575 c-15 -31 -27 -60 -27 -65 0 -19 28 -10 33 10 4 17 11 19
31 14 57 -14 79 54 26 81 -16 8 -31 15 -32 15 -2 0 -16 -25 -31 -55z m66 -11
c-5 -14 -25 -19 -36 -8 -3 4 -2 15 4 26 8 15 13 17 24 8 8 -6 11 -18 8 -26z"/>
<path d="M1969 3608 c-36 -12 -55 -58 -38 -90 16 -31 28 -38 65 -38 77 0 88
107 14 132 -8 3 -27 1 -41 -4z m55 -40 c13 -19 14 -25 2 -43 -18 -26 -40 -30
-60 -10 -20 21 -20 39 0 59 21 22 40 20 58 -6z"/>
<path d="M1783 3503 c-13 -8 -23 -20 -23 -25 0 -21 73 -109 82 -100 6 6 5 17
-3 31 -12 18 -11 22 5 34 11 8 16 19 12 26 -6 9 -13 8 -28 -5 -16 -16 -21 -16
-28 -4 -7 11 -4 20 11 30 11 9 17 19 13 23 -10 10 -16 8 -41 -10z"/>
<path d="M3127 3478 c-43 -29 -56 -43 -48 -51 8 -8 14 -8 22 0 16 16 59 -12
59 -38 0 -40 19 -26 30 23 6 29 13 62 16 74 9 36 -18 33 -79 -8z m46 -26 c-6
-16 -12 -19 -23 -11 -13 8 -12 11 4 24 24 18 29 14 19 -13z"/>
<path d="M2375 3469 c-430 -54 -770 -383 -840 -814 -74 -450 177 -891 604
-1065 216 -88 505 -88 721 -1 336 137 566 438 611 799 24 191 -21 420 -114
584 -165 287 -419 457 -742 497 -101 12 -139 12 -240 0z m133 -331 c88 -62
196 -141 240 -176 100 -79 252 -234 323 -332 70 -95 153 -229 146 -236 -2 -3
-51 59 -108 138 -122 169 -210 259 -379 388 -144 110 -309 230 -315 230 -3 0
11 -28 30 -63 34 -62 45 -121 29 -162 -10 -26 -59 -45 -147 -56 -144 -17 -279
-98 -371 -220 l-46 -61 3 -102 c2 -101 2 -101 -35 -164 -21 -35 -38 -68 -38
-73 0 -5 16 -9 35 -9 43 0 44 -12 10 -80 -14 -27 -25 -56 -25 -63 0 -21 60
-64 135 -98 47 -21 80 -29 120 -29 57 0 142 17 150 30 2 3 -10 23 -26 43 -38
47 -24 48 20 3 l33 -35 44 22 43 21 -52 34 c-80 53 -79 58 2 17 52 -26 77 -33
84 -26 6 6 15 11 21 11 6 0 5 -5 -2 -12 -18 -18 -16 -22 36 -58 55 -39 239
-216 254 -245 10 -19 10 -19 -8 -5 -10 8 -53 46 -94 85 -96 90 -217 188 -227
183 -5 -2 -25 -14 -45 -26 l-37 -23 44 -62 c41 -59 95 -158 95 -174 0 -4 -32
40 -71 98 -38 57 -76 109 -82 116 -9 8 -30 7 -87 -9 -96 -25 -165 -19 -227 19
-25 15 -60 36 -78 45 -42 22 -112 102 -120 137 -4 21 4 49 35 109 42 84 60
153 60 232 0 114 59 194 226 308 51 34 104 76 119 93 43 52 33 67 -80 126 -55
29 -108 52 -119 53 -16 0 -18 -5 -12 -42 4 -24 20 -71 36 -105 16 -35 27 -63
25 -63 -8 0 -69 119 -92 178 -16 43 -21 68 -14 75 11 11 119 -24 228 -73 l62
-28 5 26 c3 15 8 52 12 82 9 75 28 120 52 120 10 0 91 -51 180 -112z m-293
-598 c11 -5 14 -9 8 -9 -7 -1 -20 -15 -28 -32 -17 -32 -92 -73 -117 -64 -14 6
-63 74 -63 90 0 5 11 12 25 16 35 10 151 9 175 -1z m127 -372 c95 -32 236
-124 293 -189 26 -29 11 -20 -99 58 -76 54 -131 85 -256 140 -43 20 -3 14 62
-9z"/>
<path d="M1290 2376 c0 -8 5 -18 10 -21 6 -3 10 3 10 14 0 12 -4 21 -10 21 -5
0 -10 -6 -10 -14z"/>
<path d="M1340 2375 c0 -8 5 -15 10 -15 6 0 10 7 10 15 0 8 -4 15 -10 15 -5 0
-10 -7 -10 -15z"/>
<path d="M3640 2376 c0 -8 5 -18 10 -21 6 -3 10 3 10 14 0 12 -4 21 -10 21 -5
0 -10 -6 -10 -14z"/>
<path d="M3690 2375 c0 -8 5 -15 10 -15 6 0 10 7 10 15 0 8 -4 15 -10 15 -5 0
-10 -7 -10 -15z"/>
<path d="M1260 2346 c0 -9 5 -16 10 -16 6 0 10 4 10 9 0 6 -4 13 -10 16 -5 3
-10 -1 -10 -9z"/>
<path d="M1375 2349 c-4 -6 -5 -13 -2 -16 7 -7 27 6 27 18 0 12 -17 12 -25 -2z"/>
<path d="M3610 2346 c0 -9 5 -16 10 -16 6 0 10 4 10 9 0 6 -4 13 -10 16 -5 3
-10 -1 -10 -9z"/>
<path d="M3725 2349 c-4 -6 -5 -13 -2 -16 7 -7 27 6 27 18 0 12 -17 12 -25 -2z"/>
<path d="M1303 2325 c-24 -27 -15 -45 21 -45 43 0 54 15 30 41 -20 22 -34 24
-51 4z"/>
<path d="M3653 2325 c-24 -27 -15 -45 21 -45 43 0 54 15 30 41 -20 22 -34 24
-51 4z"/>
<path d="M3556 2111 c-10 -11 -16 -31 -14 -48 4 -41 45 -45 75 -7 18 23 25 26
35 16 10 -10 7 -18 -16 -39 -16 -15 -24 -29 -18 -31 20 -6 52 18 58 45 14 55
-41 85 -72 39 -9 -14 -23 -26 -30 -26 -21 0 -17 28 6 40 11 6 20 15 20 20 0
17 -26 11 -44 -9z"/>
<path d="M1353 2107 c-25 -5 -43 -16 -43 -23 0 -16 13 -17 58 -5 41 12 40 3
-2 -29 -48 -35 -37 -53 28 -45 l51 6 -42 -28 c-29 -20 -39 -33 -34 -42 7 -11
19 -6 57 20 26 19 52 37 56 40 5 3 6 12 3 21 -5 12 -18 14 -58 10 l-52 -4 39
34 c60 52 37 69 -61 45z"/>
<path d="M3465 1930 c-15 -29 -15 -30 22 -53 78 -49 78 -49 97 -15 12 20 15
33 8 40 -7 7 -14 3 -21 -11 -7 -12 -17 -18 -26 -15 -11 5 -12 10 -4 26 7 13 7
24 1 30 -7 7 -12 3 -17 -11 -3 -12 -13 -21 -21 -21 -17 0 -18 14 -4 41 8 15 7
19 -4 19 -9 0 -22 -13 -31 -30z"/>
<path d="M1478 1866 c-50 -11 -65 -28 -32 -35 32 -6 46 -23 39 -48 -12 -50 9
-42 50 19 23 35 41 66 38 71 -6 9 -37 7 -95 -7z m50 -32 c-9 -9 -21 -13 -27
-9 -16 10 -3 25 22 25 20 0 20 -1 5 -16z"/>
<path d="M3369 1792 c-15 -13 -22 -30 -22 -52 0 -61 71 -92 113 -50 20 20 29
87 10 75 -5 -3 -10 -14 -10 -24 0 -44 -63 -57 -82 -16 -12 26 2 55 27 55 7 0
18 7 25 15 11 13 9 15 -13 15 -13 0 -35 -8 -48 -18z"/>
<path d="M1632 1738 c-15 -15 -15 -40 0 -73 13 -29 8 -38 -15 -29 -9 3 -17 18
-19 32 -3 29 -21 33 -26 7 -6 -29 26 -65 59 -65 38 0 47 22 26 66 -11 22 -13
35 -6 40 13 8 26 -5 31 -31 4 -23 21 -23 26 -1 3 15 -39 66 -56 66 -4 0 -13
-5 -20 -12z"/>
<path d="M3246 1662 c-8 -13 79 -106 92 -98 8 5 -1 23 -30 57 -41 49 -52 56
-62 41z"/>
<path d="M1755 1585 c-30 -29 -32 -64 -5 -93 23 -24 85 -32 77 -9 -2 6 -10 11
-16 9 -39 -8 -67 48 -39 76 20 20 42 14 70 -20 l27 -33 1 27 c0 30 -40 68 -72
68 -10 0 -30 -11 -43 -25z"/>
<path d="M3110 1565 c0 -3 17 -29 37 -57 20 -29 38 -55 39 -57 2 -2 17 7 34
19 23 16 28 26 21 33 -8 8 -14 8 -23 -1 -18 -18 -23 -15 -52 28 -14 22 -33 40
-41 40 -8 0 -15 -2 -15 -5z"/>
<path d="M3003 1502 c-18 -9 -33 -19 -33 -24 0 -8 48 -108 55 -116 8 -9 65 30
65 44 0 12 -4 13 -20 4 -21 -11 -40 -6 -40 10 0 5 9 12 20 15 28 9 13 28 -16
21 -28 -7 -33 11 -8 29 29 21 12 34 -23 17z"/>
<path d="M1960 1487 c-13 -7 -29 -25 -34 -40 -22 -61 67 -114 113 -68 30 30
27 75 -5 100 -31 24 -40 25 -74 8z m60 -31 c6 -8 10 -25 8 -38 -6 -42 -78 -32
-78 11 0 37 46 55 70 27z"/>
<path d="M2850 1439 c-13 -6 -26 -12 -28 -14 -9 -9 34 -125 46 -125 10 0 12 8
7 29 -5 24 -2 30 14 36 30 9 26 27 -6 23 -32 -4 -44 21 -14 29 12 3 21 12 21
19 0 16 -6 16 -40 3z"/>
<path d="M2140 1421 c0 -5 9 -12 19 -16 18 -5 18 -9 5 -58 -8 -29 -14 -53 -14
-54 0 -2 6 -3 14 -3 9 0 19 20 27 50 11 42 17 50 36 50 38 0 26 17 -21 29 -55
13 -66 14 -66 2z"/>
<path d="M2358 1368 c-8 -13 -25 -42 -37 -65 -17 -35 -19 -43 -7 -43 8 0 18 5
21 10 10 16 65 12 65 -5 0 -8 7 -15 15 -15 16 0 15 7 -10 93 -14 49 -27 56
-47 25z m32 -55 c0 -7 -7 -13 -15 -13 -16 0 -19 9 -9 35 5 13 8 14 15 3 5 -7
9 -19 9 -25z"/>
<path d="M2539 1371 c-30 -24 -18 -49 28 -65 41 -14 50 -24 29 -32 -10 -4 -28
-1 -42 6 -28 16 -42 7 -24 -15 13 -15 56 -20 84 -9 19 7 21 47 4 62 -7 5 -24
12 -37 14 -14 1 -27 9 -29 17 -4 11 3 13 32 8 39 -6 48 6 17 23 -27 14 -35 13
-62 -9z"/>
</g>
</svg>
